<svg width="32" height="32" viewBox="0 0 32 32" fill="none" xmlns="http://www.w3.org/2000/svg">
<path d="M28.0003 27.9998L22.2096 22.2091M22.2096 22.2091C23.2001 21.2186 23.9858 20.0427 24.5219 18.7485C25.058 17.4543 25.3339 16.0673 25.3339 14.6665C25.3339 13.2657 25.058 11.8786 24.5219 10.5844C23.9858 9.29022 23.2001 8.1143 22.2096 7.12379C21.2191 6.13327 20.0432 5.34755 18.749 4.81148C17.4548 4.27542 16.0677 3.99951 14.6669 3.99951C13.2661 3.99951 11.879 4.27542 10.5849 4.81148C9.2907 5.34755 8.11479 6.13327 7.12427 7.12379C5.12383 9.12423 4 11.8374 4 14.6665C4 17.4955 5.12383 20.2087 7.12427 22.2091C9.12471 24.2096 11.8379 25.3334 14.6669 25.3334C17.496 25.3334 20.2092 24.2096 22.2096 22.2091Z" stroke="white" stroke-width="2.5" stroke-linecap="round" stroke-linejoin="round"/>
</svg>
