<svg width="849" height="26" viewBox="0 0 849 26" fill="none" xmlns="http://www.w3.org/2000/svg">
<path fill-rule="evenodd" clip-rule="evenodd" d="M315.469 8.52429C310.208 8.87019 304.972 9.23994 299.762 9.63529C297.866 9.77898 296.603 10.4203 296.936 11.0668L296.955 11.0923C269.149 11.0569 241.333 11.113 213.511 11.2632C173.321 11.4805 132.815 12.0243 92.6138 13.034C52.8851 14.0317 41.9138 14.2828 7.53696 16.1839C6.55386 16.2383 4.68034 16.2208 3.6537 16.3108C2.67744 16.3963 1.96075 16.5524 1.4903 16.7068C0.888093 16.9026 0.52007 17.1303 0.335124 17.3812C0.137948 17.6546 0.118209 17.9903 0.730252 18.3698C2.4579 19.4352 5.5163 19.7464 9.35446 19.5522C12.6569 19.3849 16.7333 18.7369 19.8421 18.682C71.595 17.7698 123.339 16.7174 175.093 15.831C254.321 14.4742 333.119 14.1342 411.861 14.1596C494.489 15.0074 576.929 16.6367 659.091 18.9866C712.602 20.5162 765.894 22.5983 819.272 24.4685C819.216 24.5497 819.193 24.6347 819.188 24.7216C819.18 25.3832 820.741 25.8988 822.664 25.8724C824.613 25.8456 841.965 25.8006 845.209 25.552C847.068 25.4096 847.856 25.0252 848.124 24.8601C848.854 24.4073 848.985 23.9106 847.639 23.426C847.373 23.333 846.872 23.1788 845.918 23.0759C845.103 22.9857 843.063 22.8644 839.339 22.7394C779.544 20.7142 719.894 18.3092 659.971 16.5942C633.219 15.8305 606.437 15.141 579.618 14.5323C616.155 14.6321 652.71 14.7098 689.34 14.7017C690.917 14.703 691.698 14.6202 691.842 14.6004C693.906 14.3156 694.149 13.7692 694.169 13.4587C694.18 13.3479 694.082 12.4321 691.159 12.2825C689.448 12.1946 677.018 11.9582 672.241 11.8359C649.289 11.2415 649.814 11.3127 626.32 10.7731C574.658 9.58862 523.019 8.67643 471.224 7.86669C450.573 7.54412 429.916 7.25549 409.247 7.00415C469.199 5.68258 530.041 6.19255 588.076 6.39475C618.015 6.4993 647.949 6.66814 677.841 7.01685C691.229 7.17316 704.6 7.407 717.982 7.58641C722.14 7.64199 726.279 7.73108 730.431 7.79522C730.923 7.80264 737.371 7.86744 738.43 7.8671C741.206 7.86628 742.005 7.01949 742.036 6.98556C742.185 6.8262 742.859 5.68393 739.449 5.48238C690.186 2.56984 637.923 2.79255 587.756 2.01463C499.952 0.652954 411.748 0.17444 323.632 0.483286C284.659 0.619761 245.724 1.20976 206.72 1.79488C187.24 2.08717 167.704 2.40493 148.291 3.32118C146.344 3.41326 141.955 3.4907 139.812 3.60108C138.722 3.65746 137.935 3.75312 137.57 3.81966C135.973 4.10834 135.583 4.54708 135.5 4.85607C135.441 5.08765 135.429 5.9045 138.556 6.17661C183.238 10.0694 234.003 8.13576 280.085 8.3326C291.881 8.38294 303.672 8.44705 315.469 8.52429ZM353.87 8.8221C340.072 9.44388 326.385 10.2015 312.858 11.123C346.045 11.2069 379.209 11.421 412.362 11.7614C467.159 11.7791 521.921 11.9731 576.757 12.1241C541.415 11.4196 506.043 10.8175 470.602 10.2637C431.729 9.656 392.814 9.16961 353.87 8.8221ZM544.691 3.82223C471.051 2.91793 397.193 2.62358 323.402 2.88229C284.498 3.01866 245.645 3.6079 206.717 4.19194C191.399 4.42175 176.037 4.66554 160.737 5.21193C199.633 7.15994 241.733 5.76793 280.479 5.9336C304.949 6.03817 329.42 6.20129 353.873 6.41916C416.683 3.61239 481.748 3.58877 544.691 3.82223Z" fill="#CCA636"/>
</svg>
